<svg id="Ebene_1" data-name="Ebene 1" xmlns="http://www.w3.org/2000/svg" width="192" height="192" viewBox="0 0 192 192">
  <defs>
    <style>
      .cls-1 {
        fill: none;
        stroke: #1d1d1b;
        stroke-linecap: round;
        stroke-linejoin: round;
        stroke-width: 12px;
      }
    </style>
  </defs>
  <path class="cls-1" d="M43.82,135.81Q52,99.09,60.18,62.36L79,62.89a16.67,16.67,0,0,1,12.66,6.33,18.26,18.26,0,0,1,3.9,9.63,22.69,22.69,0,0,1-2.5,13.71c-1,1.81-3.9,7.23-10,9.89-3.19,1.38-5.83,1.41-10.76,1.32-5.67-.1-12.8-.32-21.1-.79"/>
  <path class="cls-1" d="M106.86,136l16.35-74.11c12,.39,24-.21,36,.18"/>
  <line class="cls-1" x1="151.9" y1="98.97" x2="116.67" y2="99.26"/>
</svg>
